Coordinates
version=1
nRows=11
nColumns=40
inDegrees=yes

Units are S.I. units (second, meters, Newtons, ...)
Angles are in degrees.

endheader
time	pelvis_tilt	pelvis_list	pelvis_rotation	pelvis_tx	pelvis_ty	pelvis_tz	hip_flexion_r	hip_adduction_r	hip_rotation_r	knee_angle_r	knee_angle_r_beta	ankle_angle_r	subtalar_angle_r	mtp_angle_r	hip_flexion_l	hip_adduction_l	hip_rotation_l	knee_angle_l	knee_angle_l_beta	ankle_angle_l	subtalar_angle_l	mtp_angle_l	lumbar_extension	lumbar_bending	lumbar_rotation	arm_flex_r	arm_add_r	arm_rot_r	elbow_flex_r	pro_sup_r	wrist_flex_r	wrist_dev_r	arm_flex_l	arm_add_l	arm_rot_l	elbow_flex_l	pro_sup_l	wrist_flex_l	wrist_dev_l
      3.53000007	      3.88799619	     15.71478447	     -4.21885478	     -0.81255789	      0.82722222	      0.51095177	     61.73645515	    -17.00065672	    -29.51666804	     80.31414516	     80.31414516	     13.29933380	      0.00000000	      0.00000000	     21.42767936	    -10.93459155	      8.70856309	     50.29395808	     50.29395808	     26.45910200	      0.00000000	      0.00000000	    -54.54583053	     -2.61251682	     -9.87534374	    -17.29035936	    -11.01615876	     -7.60747542	     66.06349956	     27.54316246	      0.00000000	      0.00000000	     89.96642080	    -12.19738261	     10.79426989	    103.91478788	     29.89139153	      0.00000000	      0.00000000
      3.53500007	      3.00037726	     16.00057349	     -3.69764913	     -0.79023122	      0.82691202	      0.51560658	     62.93635995	    -17.43980296	    -29.74743476	     77.34522800	     77.34522800	     13.04477693	      0.00000000	      0.00000000	     20.65663924	    -11.05660711	      8.40403578	     49.93317927	     49.93317927	     26.85107185	      0.00000000	      0.00000000	    -53.37421070	     -1.82428073	    -10.32562144	    -18.26805452	    -11.39281128	     -6.19794464	     67.11280783	     28.06629032	      0.00000000	      0.00000000	     89.97287429	    -12.64946450	     10.82985977	    103.82467514	     29.29067928	      0.00000000	      0.00000000
      3.54000007	      2.09000563	     16.27004980	     -3.26383763	     -0.76767948	      0.82686691	      0.52049411	     64.04080920	    -17.76120911	    -29.91126963	     74.29189212	     74.29189212	     12.69771225	      0.00000000	      0.00000000	     19.79620904	    -11.19509971	      8.07000126	     49.41737347	     49.41737347	     27.02686862	      0.00000000	      0.00000000	    -52.18004412	     -1.09798783	    -10.64586097	    -19.39933773	    -11.79304956	     -5.02093856	     68.41779710	     28.58781097	      0.00000000	      0.00000000	     89.97413827	    -13.23253130	     10.92775948	    103.64900978	     29.05606568	      0.00000000	      0.00000000
      3.54500007	      1.19849820	     16.52239563	     -2.92912977	     -0.74486961	      0.82715138	      0.52566723	     65.00002869	    -17.96704722	    -30.03131934	     71.17574882	     71.17574882	     12.25065768	      0.00000000	      0.00000000	     18.80933460	    -11.34448599	      7.72342610	     48.75479430	     48.75479430	     26.95025148	      0.00000000	      0.00000000	    -51.00985848	     -0.43459648	    -10.85917143	    -20.63935407	    -12.19451315	     -4.08566298	     69.93254436	     28.76915546	      0.00000000	      0.00000000	     89.97178831	    -13.97786836	     11.10810924	    103.41054375	     29.07334781	      0.00000000	      0.00000000
      3.55000007	      0.36496365	     16.75634666	     -2.70406161	     -0.72176661	      0.82782007	      0.53117205	     65.76985441	    -18.06176842	    -30.13330182	     68.02229111	     68.02229111	     11.69372086	      0.00000000	      0.00000000	     17.66262372	    -11.50098992	      7.37989967	     47.95368646	     47.95368646	     26.58476446	      0.00000000	      0.00000000	    -49.90558994	      0.16594748	    -10.98920863	    -21.93183954	    -12.57684926	     -3.42878837	     71.41135048	     30.72477858	      0.00000000	      0.00000000	     89.96383495	    -14.91256391	     11.38988572	    103.07013612	     30.07748731	      0.00000000	      0.00000000
      3.55500007	     -0.37638679	     16.97143837	     -2.59833046	     -0.69833678	      0.82891269	      0.53704681	     66.31564602	    -18.05124271	    -30.24118208	     64.86088539	     64.86088539	     11.01828085	      0.00000000	      0.00000000	     16.32799340	    -11.66025293	      7.05251226	     47.02093180	     47.02093180	     25.89615272	      0.00000000	      0.00000000	    -48.90094359	      0.70258018	    -11.06519446	    -23.23531133	    -12.94885017	     -2.95998371	     72.97010277	     32.22647770	      0.00000000	      0.00000000	     89.93692211	    -16.07335829	     11.80754957	    102.71317359	     31.25394003	      0.00000000	      0.00000000
      3.56000007	     -0.99870858	     17.16712317	     -2.61893034	     -0.67455131	      0.83045059	      0.54331847	     66.61408472	    -17.94226030	    -30.37636293	     61.72350714	     61.72350714	     10.22007508	      0.00000000	      0.00000000	     14.78552939	    -11.81652982	      6.75375112	     45.96202381	     45.96202381	     24.85332121	      0.00000000	      0.00000000	    -47.98746413	      1.18750367	    -11.11073467	    -24.49160534	    -13.32312985	     -2.64792099	     74.44365388	     34.35573238	      0.00000000	      0.00000000	     89.67621311	    -17.45793913	     12.27092476	    102.43318531	     32.86734765	      0.00000000	      0.00000000
      3.56500007	     -1.48325373	     17.34281017	     -2.76841473	     -0.65038800	      0.83243858	      0.54999998	     66.65286140	    -17.74366064	    -30.55756819	     58.64390163	     58.64390163	      9.30302458	      0.00000000	      0.00000000	     13.02465407	    -11.96166327	      6.49617392	     44.77970972	     44.77970972	     23.42942073	      0.00000000	      0.00000000	    -47.03276282	      1.68858625	    -11.12818288	    -25.66109829	    -13.73233521	     -2.43746587	     75.75984247	     36.81958922	      0.00000000	      0.00000000	     88.21921419	    -18.89392687	     12.18528966	    102.76258328	     33.27484204	      0.00000000	      0.00000000
      3.57000007	     -1.81784042	     17.50347332	     -3.05808432	     -0.62584655	      0.83485772	      0.55712153	     66.43363129	    -17.45202439	    -30.78223752	     55.65227208	     55.65227208	      8.27658662	      0.00000000	      0.00000000	     11.03878799	    -12.08323199	      6.27765041	     43.47104553	     43.47104553	     21.60006395	      0.00000000	      0.00000000	    -46.17304178	      2.14742098	    -11.13968545	    -26.74894798	    -14.16621409	     -2.24336553	     77.18388569	     36.98321379	      0.00000000	      0.00000000	     86.25622161	    -20.44924519	     11.91052819	    103.31091280	     33.32540515	      0.00000000	      0.00000000
      3.57500007	     -2.00178331	     17.65786700	     -3.50130909	     -0.60095080	      0.83766069	      0.56471473	     65.97489892	    -17.05665439	    -31.02850873	     52.77493509	     52.77493509	      7.15433419	      0.00000000	      0.00000000	      8.83502343	    -12.16388079	      6.08679211	     42.03322964	     42.03322964	     19.34457107	      0.00000000	      0.00000000	    -45.44741474	      2.52804741	    -11.14565828	    -27.68223823	    -14.57774593	     -2.36521065	     77.97737358	     44.13694480	      0.00000000	      0.00000000	     83.98114286	    -22.11224400	     11.54179690	    103.93869272	     33.45369715	      0.00000000	      0.00000000
      3.58000007	     -2.04582816	     17.81877706	     -4.11420272	     -0.57575459	      0.84077130	      0.57281556	     65.31150151	    -16.53894586	    -31.25133049	     50.03241653	     50.03241653	      5.95190415	      0.00000000	      0.00000000	      6.43652846	    -12.18114426	      5.90143369	     40.46778357	     40.46778357	     16.64917659	      0.00000000	      0.00000000	    -44.85016451	      2.79691446	    -11.15020126	    -28.48924806	    -15.00412824	     -2.49950757	     78.84821618	     49.45110088	      0.00000000	      0.00000000	     81.41753865	    -23.85170013	     11.07456383	    104.61567612	     33.53331349	      0.00000000	      0.00000000
